<?xml version="1.0" encoding="utf-8"?>
<!-- Generator: Adobe Illustrator 16.0.0, SVG Export Plug-In . SVG Version: 6.00 Build 0)  -->
<!DOCTYPE svg PUBLIC "-//W3C//DTD SVG 1.1//EN" "http://www.w3.org/Graphics/SVG/1.1/DTD/svg11.dtd">
<svg version="1.1" id="Layer_1" xmlns="http://www.w3.org/2000/svg" xmlns:xlink="http://www.w3.org/1999/xlink" x="0px" y="0px"
	 width="150px" height="150px" viewBox="0 0 150 150" enable-background="new 0 0 150 150" xml:space="preserve">
<rect fill="#111128" width="150" height="150"/>
<ellipse fill="#17EA00" cx="78.898" cy="73.056" rx="57.487" ry="56.091"/>
<path fill="#2EAD1C" d="M78.898,123.146c-30.718,0-55.806-23.509-57.404-53.091c-0.054,0.994-0.083,1.993-0.083,3
	c0,30.978,25.738,56.091,57.487,56.091c31.749,0,57.487-25.113,57.487-56.091c0-1.007-0.03-2.006-0.084-3
	C134.704,99.638,109.615,123.146,78.898,123.146z"/>
<circle fill="#FFFFFF" cx="79.944" cy="66.467" r="24.492"/>
<circle cx="79.944" cy="66.467" r="13.072"/>
<circle fill="#BCBCBC" cx="83.694" cy="60.217" r="3.071"/>
<path fill="#2EAD1C" d="M82.333,111.664l1.41,17.27c7.421-0.605,14.439-2.581,20.79-5.674l-1.665-18.879L82.333,111.664z"/>
<path fill="#FFFFFF" d="M81.802,111.487c5.33-1.016,16.244-3.553,21.066-7.106c2.216,3.869,6.632,9.536,5.965,18.453
	c-0.584,7.805-18.166,15.666-19.583,6.583S81.802,111.487,81.802,111.487z"/>
<g id="Layer_2">
	<path fill="#B3B3B3" d="M105.656,109.124c-0.992-1.832-2.021-3.403-2.788-4.743c-4.822,3.554-15.736,6.091-21.066,7.106
		c0,0,1.096,1.615,2.463,4.165L105.656,109.124z"/>
</g>
<g>
	<path d="M44.97,101.589c0,0,1.132,0.542,3.141,1.371c2.013,0.815,4.897,1.932,8.417,2.993c1.754,0.55,3.687,1.014,5.712,1.518
		c2.044,0.434,4.202,0.852,6.444,1.141c1.117,0.184,2.264,0.24,3.417,0.362c0.578,0.027,1.16,0.054,1.745,0.081
		c0.584,0.03,1.17,0.071,1.759,0.059c0.588,0.002,1.179,0.005,1.771,0.007c0.592-0.007,1.183-0.057,1.776-0.074
		c1.189-0.019,2.37-0.183,3.555-0.298c1.181-0.139,2.352-0.347,3.518-0.549c1.144-0.298,2.321-0.457,3.434-0.823
		c1.119-0.338,2.246-0.628,3.317-1.045c0.542-0.194,1.08-0.387,1.614-0.577c0.526-0.214,1.036-0.456,1.55-0.68
		c0.512-0.228,1.021-0.453,1.523-0.676c0.483-0.265,0.967-0.519,1.45-0.763c0.483-0.247,0.961-0.491,1.433-0.732
		c0.454-0.275,0.902-0.547,1.346-0.814c1.795-1.04,3.375-2.219,4.884-3.256c0.716-0.571,1.402-1.119,2.055-1.64
		c0.331-0.259,0.654-0.511,0.968-0.756c0.296-0.265,0.584-0.521,0.863-0.771c1.099-1.017,2.151-1.829,2.894-2.618
		c1.548-1.521,2.48-2.374,2.48-2.374s-0.651,1.062-1.877,2.893c-0.584,0.939-1.441,1.962-2.4,3.168
		c-0.921,1.243-2.177,2.449-3.486,3.841c-1.406,1.282-2.906,2.733-4.718,3.993c-0.442,0.327-0.885,0.671-1.348,0.998
		c-0.479,0.305-0.962,0.614-1.451,0.927c-0.488,0.315-0.987,0.627-1.496,0.934c-0.528,0.271-1.062,0.547-1.599,0.824
		c-0.541,0.272-1.079,0.564-1.636,0.828c-0.567,0.24-1.139,0.483-1.713,0.727c-1.138,0.527-2.348,0.903-3.563,1.294
		c-0.604,0.212-1.223,0.379-1.849,0.525l-1.88,0.458c-1.269,0.235-2.547,0.476-3.832,0.634c-2.575,0.28-5.168,0.41-7.705,0.269
		c-2.537-0.103-5.012-0.452-7.368-0.908c-2.369-0.406-4.587-1.095-6.674-1.742c-2.074-0.694-3.999-1.44-5.721-2.244
		c-1.737-0.766-3.272-1.583-4.607-2.344c-1.345-0.742-2.462-1.484-3.378-2.092C45.912,102.422,44.97,101.589,44.97,101.589z"/>
</g>
</svg>
